<svg id="Capa_1" enable-background="new 0 0 512 512" height="512" viewBox="0 0 512 512" width="512" xmlns="http://www.w3.org/2000/svg"><g><path d="m416.254 152.963-23.672-47.344c-1.04-2.065-1.582-4.38-1.582-6.694v-53.925c0-24.814-20.186-45-45-45h-90-90c-24.814 0-45 20.186-45 45v53.925c0 2.314-.542 4.629-1.582 6.694l-23.672 47.344c-3.105 6.211-4.746 13.169-4.746 20.112v308.925 15c0 8.291 6.709 15 15 15h150 150c8.291 0 15-6.709 15-15v-323.925c0-6.943-1.641-13.901-4.746-20.112z" fill="#fabe2c"/><path d="m421 497v-323.925c0-6.943-1.641-13.901-4.746-20.112l-23.672-47.344c-1.04-2.065-1.582-4.38-1.582-6.694v-53.925c0-24.814-20.186-45-45-45h-90v512h150c8.291 0 15-6.709 15-15z" fill="#ff9100"/><path d="m421 271c-16.538 0-30 13.462-30 30v90h-135-135v-90c0-16.538-13.462-30-30-30s-30 13.462-30 30v120c0 16.538 13.462 30 30 30h150l15-30 15 30h150c16.538 0 30-13.462 30-30v-120c0-16.538-13.462-30-30-30z" fill="#ffe470"/><path d="m421 451c16.538 0 30-13.462 30-30v-120c0-16.538-13.462-30-30-30s-30 13.462-30 30v90h-135v30l15 30z" fill="#fabe2c"/><path d="m256 301h-15v150h15 15v-150z" fill="#704c55"/><path d="m256 301h15v150h-15z" fill="#5b362a"/><g><g><path d="m286 271c-3.839 0-7.678-1.464-10.606-4.394-5.858-5.858-5.858-15.355 0-21.213l60-60c5.857-5.858 15.355-5.858 21.213 0s5.858 15.355 0 21.213l-60 60c-2.93 2.93-6.768 4.394-10.607 4.394z" fill="#5b362a"/></g></g><g><g><path d="m226 271c-3.839 0-7.678-1.464-10.606-4.394l-60-60c-5.858-5.858-5.858-15.355 0-21.213 5.857-5.858 15.355-5.858 21.213 0l60 60c5.858 5.858 5.858 15.355 0 21.213-2.93 2.93-6.768 4.394-10.607 4.394z" fill="#704c55"/></g></g><path d="m286 241h-30-30c-8.291 0-15 6.709-15 15v60c0 8.291 6.709 15 15 15h30 30c8.291 0 15-6.709 15-15v-60c0-8.291-6.709-15-15-15z" fill="#e7faff"/><path d="m301 316v-60c0-8.291-6.709-15-15-15h-30v90h30c8.291 0 15-6.709 15-15z" fill="#d5e8fe"/></g></svg>